<?xml version="1.0" encoding="UTF-8"?>
<svg id="Calque_1" data-name="Calque 1" xmlns="http://www.w3.org/2000/svg" viewBox="0 0 342.51 97.15">
  <defs>
    <style>
      .cls-1 {
        fill: #fff;
      }

      .cls-2 {
        fill: #eb5c55;
      }
    </style>
  </defs>
  <path class="cls-1" d="M99.49,0h3.92v17.31c0,.26-.21.47-.47.47h-2.97c-.26,0-.47-.21-.47-.47V0h0Z"/>
  <path class="cls-1" d="M100.01,79.37h2.87c.29,0,.52.23.52.52v17.26h-3.92v-17.26c0-.29.23-.52.52-.52Z"/>
  <g>
    <path class="cls-1" d="M36.71,43.73c1.25.86,2.27,1.94,3.05,3.24.78,1.3,1.17,2.83,1.17,4.58,0,2.11-.44,3.89-1.33,5.35-.89,1.46-2.16,2.6-3.82,3.44-1.76.9-3.78,1.53-6.08,1.9-2.3.37-5,.56-8.1.56H0v-2.29c.6-.06,1.37-.15,2.29-.26.92-.12,1.56-.25,1.93-.41.72-.29,1.22-.68,1.48-1.16.26-.48.4-1.1.4-1.86v-29.3c0-.7-.11-1.29-.32-1.76-.22-.47-.73-.88-1.55-1.23-.61-.25-1.31-.46-2.11-.63-.8-.17-1.5-.3-2.11-.4v-2.29h22.59c5.68,0,9.79.78,12.3,2.34,2.52,1.56,3.78,3.87,3.78,6.91,0,1.41-.28,2.64-.85,3.71-.57,1.06-1.38,1.99-2.43,2.77-.96.72-2.1,1.35-3.43,1.88-1.33.53-2.75.97-4.28,1.32v.56c1.52.16,3.11.49,4.75,1.01,1.64.52,3.07,1.19,4.28,2.01ZM27.28,31.22c0-2.3-.65-4.1-1.95-5.39-1.3-1.29-3.25-1.93-5.84-1.93-.37,0-.85.01-1.45.04-.6.03-1.11.05-1.54.07v15.41h1.52c3.16,0,5.5-.74,7-2.21,1.5-1.47,2.26-3.47,2.26-5.99ZM29.33,51.19c0-2.9-.86-5.12-2.58-6.66-1.72-1.55-4.19-2.32-7.41-2.32-.37,0-.86.01-1.48.04s-1.07.05-1.36.07v15.23c.18.72.72,1.33,1.64,1.83.92.5,2.03.75,3.34.75,2.32,0,4.21-.78,5.67-2.35,1.45-1.56,2.18-3.77,2.18-6.6Z"/>
    <path class="cls-1" d="M75.03,37.2c1.45,1.35,2.55,2.96,3.31,4.83s1.14,3.91,1.14,6.09-.38,4.21-1.13,6.14c-.75,1.92-1.85,3.57-3.3,4.94-1.54,1.46-3.38,2.59-5.52,3.37s-4.58,1.17-7.34,1.17c-2.38,0-4.58-.34-6.58-1.03-2-.68-3.77-1.71-5.32-3.08-1.48-1.31-2.66-2.92-3.52-4.85-.86-1.92-1.29-4.08-1.29-6.46s.38-4.43,1.13-6.25c.75-1.83,1.88-3.45,3.38-4.88,1.45-1.37,3.23-2.43,5.35-3.18,2.12-.75,4.49-1.13,7.1-1.13s5.14.38,7.22,1.13c2.08.75,3.86,1.81,5.35,3.18ZM67.53,57.5c.43-1.09.75-2.42.95-3.98.21-1.56.31-3.38.31-5.45,0-1.37-.1-2.93-.29-4.69-.2-1.76-.49-3.14-.88-4.16-.47-1.23-1.12-2.2-1.95-2.9-.83-.7-1.88-1.05-3.15-1.05-1.39,0-2.5.38-3.33,1.14-.83.76-1.47,1.75-1.92,2.96-.41,1.11-.69,2.42-.85,3.91-.16,1.49-.23,3.05-.23,4.67,0,2.13.07,3.89.21,5.29.14,1.4.47,2.8,1,4.2.45,1.21,1.09,2.17,1.93,2.87.84.7,1.9,1.05,3.19,1.05,1.17,0,2.18-.33,3.02-.98.84-.65,1.5-1.62,1.99-2.89Z"/>
    <path class="cls-2" d="M113.17,37.2c1.45,1.35,2.55,2.96,3.31,4.83s1.14,3.91,1.14,6.09-.38,4.21-1.13,6.14c-.75,1.92-1.85,3.57-3.3,4.94-1.54,1.46-3.38,2.59-5.52,3.37s-4.58,1.17-7.34,1.17c-2.38,0-4.58-.34-6.58-1.03-2-.68-3.77-1.71-5.32-3.08-1.48-1.31-2.66-2.92-3.52-4.85-.86-1.92-1.29-4.08-1.29-6.46s.38-4.43,1.13-6.25c.75-1.83,1.88-3.45,3.38-4.88,1.45-1.37,3.23-2.43,5.35-3.18,2.12-.75,4.49-1.13,7.1-1.13s5.14.38,7.22,1.13c2.08.75,3.86,1.81,5.35,3.18ZM105.67,57.5c.43-1.09.75-2.42.95-3.98.21-1.56.31-3.38.31-5.45,0-1.37-.1-2.93-.29-4.69-.2-1.76-.49-3.14-.88-4.16-.47-1.23-1.12-2.2-1.95-2.9-.83-.7-1.88-1.05-3.15-1.05-1.39,0-2.5.38-3.33,1.14-.83.76-1.47,1.75-1.92,2.96-.41,1.11-.69,2.42-.85,3.91-.16,1.49-.23,3.05-.23,4.67,0,2.13.07,3.89.21,5.29.14,1.4.47,2.8,1,4.2.45,1.21,1.09,2.17,1.93,2.87.84.7,1.9,1.05,3.19,1.05,1.17,0,2.18-.33,3.02-.98.84-.65,1.5-1.62,1.99-2.89Z"/>
    <path class="cls-1" d="M158.99,62.81h-13.81c-1.7-2.98-3.25-5.51-4.65-7.58-1.41-2.07-2.73-4-3.98-5.77l-1.73,1.46v6.39c0,.7.1,1.28.31,1.73.21.45.6.78,1.19,1,.35.16.76.29,1.23.41s.94.2,1.41.23v2.14h-18.19v-2.14c.49-.04.98-.09,1.47-.16.49-.07.92-.16,1.3-.28.63-.21,1.06-.55,1.28-1,.23-.45.34-1.04.34-1.76V24.81c0-.64-.14-1.31-.42-2.01-.28-.69-.7-1.22-1.25-1.57-.37-.23-.93-.43-1.67-.59-.74-.16-1.42-.25-2.02-.29v-2.14l14.59-.76.44.47v30.23c1.44-1.29,3.07-2.78,4.87-4.48,1.8-1.7,3.25-3.1,4.35-4.22.64-.66,1-1.17,1.07-1.51.07-.34.1-.55.1-.63,0-.35-.31-.64-.93-.88-.62-.23-1.54-.44-2.78-.62v-2.08h14.88v2.02c-1.95.55-3.44,1.06-4.46,1.54-1.02.48-2.14,1.12-3.35,1.92-.8.53-1.57,1.08-2.32,1.66-.75.58-1.61,1.3-2.58,2.16,1.91,2.77,3.67,5.34,5.29,7.7,1.62,2.36,3.31,4.86,5.09,7.5.6.92,1.36,1.53,2.25,1.84.9.31,1.79.51,2.69.59v2.14Z"/>
    <path class="cls-1" d="M171.86,20.15l13.36.03c2.6.06,4.89.56,6.88,1.49s3.51,2.32,4.56,4.15c1.04,1.83,1.45,4.13,1.22,6.9-.2,2.21-.82,4.11-1.86,5.7-1.04,1.59-2.39,2.92-4.03,3.98-1.64,1.06-3.46,1.91-5.45,2.53l-1.64.59h-13.24l.76-4.6,9.4.03c1.72,0,3.33-.31,4.85-.94,1.51-.62,2.78-1.55,3.81-2.77,1.03-1.22,1.66-2.73,1.89-4.53.21-1.72.05-3.15-.5-4.31-.55-1.15-1.4-2.03-2.56-2.64-1.16-.6-2.56-.93-4.2-.97l-8.53-.03-6.59,38.03h-5.54l7.41-42.66ZM188.79,62.81l-6.71-19.34,5.45-.03,7.15,18.98-.03.38h-5.86Z"/>
    <path class="cls-1" d="M212.37,63.39c-2.17-.04-4.05-.47-5.64-1.3s-2.89-1.95-3.9-3.37c-1.01-1.42-1.72-3.03-2.15-4.85s-.56-3.72-.38-5.71l.12-1.26c.2-2.03.69-4.03,1.49-5.99s1.87-3.74,3.21-5.32,2.92-2.84,4.75-3.76c1.83-.93,3.85-1.36,6.08-1.3,2.21.04,4.04.51,5.51,1.41,1.46.9,2.61,2.08,3.44,3.56.83,1.48,1.37,3.12,1.63,4.95.25,1.83.27,3.7.06,5.61l-.32,2.43h-23l.7-4.42,17.55.03.09-.47c.2-1.41.12-2.76-.23-4.07-.35-1.31-.99-2.39-1.92-3.24s-2.17-1.29-3.74-1.33c-1.62-.06-3.03.27-4.22.98-1.19.71-2.19,1.67-2.99,2.87s-1.43,2.51-1.89,3.93c-.46,1.42-.78,2.8-.95,4.15l-.12,1.23c-.12,1.25-.08,2.51.12,3.78.2,1.27.57,2.43,1.13,3.47.56,1.04,1.33,1.89,2.33,2.55,1,.65,2.23,1,3.69,1.04,1.78.04,3.37-.35,4.79-1.16,1.42-.81,2.71-1.84,3.88-3.09l3.02,2.58c-.92,1.35-2.01,2.48-3.28,3.4-1.27.92-2.66,1.6-4.16,2.05s-3.07.66-4.69.64Z"/>
    <path class="cls-1" d="M243.22,63.39c-2.17-.04-4.05-.47-5.64-1.3s-2.89-1.95-3.9-3.37c-1.01-1.42-1.72-3.03-2.15-4.85s-.56-3.72-.38-5.71l.12-1.26c.2-2.03.69-4.03,1.49-5.99s1.87-3.74,3.21-5.32,2.92-2.84,4.75-3.76c1.83-.93,3.85-1.36,6.08-1.3,2.21.04,4.04.51,5.51,1.41,1.46.9,2.61,2.08,3.44,3.56.83,1.48,1.37,3.12,1.63,4.95.25,1.83.27,3.7.06,5.61l-.32,2.43h-23l.7-4.42,17.55.03.09-.47c.2-1.41.12-2.76-.23-4.07-.35-1.31-.99-2.39-1.92-3.24s-2.17-1.29-3.74-1.33c-1.62-.06-3.03.27-4.22.98-1.19.71-2.19,1.67-2.99,2.87s-1.43,2.51-1.89,3.93c-.46,1.42-.78,2.8-.95,4.15l-.12,1.23c-.12,1.25-.08,2.51.12,3.78.2,1.27.57,2.43,1.13,3.47.56,1.04,1.33,1.89,2.33,2.55,1,.65,2.23,1,3.69,1.04,1.78.04,3.37-.35,4.79-1.16,1.42-.81,2.71-1.84,3.88-3.09l3.02,2.58c-.92,1.35-2.01,2.48-3.28,3.4-1.27.92-2.66,1.6-4.16,2.05s-3.07.66-4.69.64Z"/>
    <path class="cls-1" d="M262.05,47.54l.06-.62c.25-1.95.73-3.91,1.42-5.86.69-1.95,1.64-3.74,2.83-5.36,1.19-1.62,2.64-2.91,4.34-3.87,1.7-.96,3.68-1.41,5.95-1.35,2.03.06,3.73.54,5.1,1.44,1.37.9,2.45,2.08,3.24,3.56.79,1.48,1.33,3.09,1.61,4.85s.37,3.53.25,5.3l-.32,2.7c-.33,1.89-.88,3.75-1.64,5.57s-1.74,3.45-2.94,4.91c-1.2,1.46-2.64,2.6-4.31,3.44s-3.58,1.23-5.73,1.17c-2.07-.08-3.78-.62-5.14-1.61s-2.41-2.28-3.16-3.85c-.75-1.57-1.24-3.27-1.46-5.1-.22-1.83-.25-3.6-.07-5.32ZM267.5,46.87l-.06.62c-.14,1.17-.18,2.41-.13,3.71.05,1.3.27,2.52.66,3.66s1.03,2.08,1.9,2.81,2.07,1.13,3.57,1.19c1.6.04,3.09-.32,4.45-1.08s2.54-1.78,3.52-3.05c.98-1.27,1.68-2.65,2.11-4.13l1.14-7.12c.06-1.07-.07-2.1-.38-3.09-.31-.99-.78-1.87-1.39-2.65-.62-.78-1.37-1.41-2.26-1.89-.89-.48-1.88-.73-2.97-.75-1.64-.06-3.06.26-4.25.95-1.19.69-2.19,1.62-3,2.78-.81,1.16-1.45,2.45-1.92,3.85s-.8,2.8-1,4.19ZM281.16,56.33l6.68-38.53h5.33l-7.82,45h-4.83l.64-6.47Z"/>
    <path class="cls-1" d="M305.75,63.39c-2.17-.04-4.05-.47-5.64-1.3s-2.89-1.95-3.9-3.37c-1.01-1.42-1.72-3.03-2.15-4.85s-.56-3.72-.38-5.71l.12-1.26c.2-2.03.69-4.03,1.49-5.99s1.87-3.74,3.21-5.32,2.92-2.84,4.75-3.76c1.83-.93,3.85-1.36,6.08-1.3,2.21.04,4.04.51,5.51,1.41,1.46.9,2.61,2.08,3.44,3.56.83,1.48,1.37,3.12,1.63,4.95.25,1.83.27,3.7.06,5.61l-.32,2.43h-23l.7-4.42,17.55.03.09-.47c.2-1.41.12-2.76-.23-4.07-.35-1.31-.99-2.39-1.92-3.24s-2.17-1.29-3.74-1.33c-1.62-.06-3.03.27-4.22.98-1.19.71-2.19,1.67-2.99,2.87s-1.43,2.51-1.89,3.93c-.46,1.42-.78,2.8-.95,4.15l-.12,1.23c-.12,1.25-.08,2.51.12,3.78.2,1.27.57,2.43,1.13,3.47.56,1.04,1.33,1.89,2.33,2.55,1,.65,2.23,1,3.69,1.04,1.78.04,3.37-.35,4.79-1.16,1.42-.81,2.71-1.84,3.88-3.09l3.02,2.58c-.92,1.35-2.01,2.48-3.28,3.4-1.27.92-2.66,1.6-4.16,2.05s-3.07.66-4.69.64Z"/>
    <path class="cls-1" d="M332.23,36.32l-4.6,26.48h-5.3l5.51-31.7h5.16l-.76,5.21ZM342.51,30.84l-.5,5.1c-.41-.08-.83-.15-1.25-.21s-.83-.09-1.25-.09c-1.27-.02-2.41.17-3.41.57-1.01.4-1.89.96-2.67,1.68-.77.72-1.43,1.57-1.96,2.55-.54.98-.96,2.03-1.27,3.16l-1.67.88c.21-1.58.57-3.2,1.07-4.86.5-1.66,1.19-3.19,2.08-4.6s2.01-2.54,3.37-3.4c1.36-.86,2.99-1.26,4.91-1.2.43,0,.85.04,1.27.12.42.08.84.18,1.27.29Z"/>
  </g>
</svg>