<?xml version="1.0" encoding="UTF-8"?>
<svg id="Calque_1" data-name="Calque 1" xmlns="http://www.w3.org/2000/svg" viewBox="0 0 298.12 98.28">
  <defs>
    <style>
      .cls-1 {
        fill: #fff;
      }

      .cls-2 {
        fill: #eb5c55;
      }
    </style>
  </defs>
  <g>
    <path class="cls-1" d="M29.56,44.52c1.21.82,2.22,1.89,3.02,3.22.8,1.33,1.2,2.94,1.2,4.83s-.42,3.61-1.26,5.04c-.84,1.43-1.93,2.6-3.28,3.52-1.31.9-2.79,1.58-4.44,2.05-1.65.47-3.35.7-5.11.7H0v-2.08c.47-.04,1.15-.12,2.05-.25.9-.13,1.54-.28,1.93-.45.6-.27,1.04-.64,1.29-1.1.25-.46.38-1.05.38-1.77v-29.88c0-.66-.11-1.25-.34-1.76-.22-.51-.67-.92-1.33-1.23-.59-.29-1.24-.52-1.96-.67-.72-.16-1.33-.25-1.82-.29v-2.08h19.19c1.48,0,2.9.15,4.26.44,1.36.29,2.65.81,3.88,1.55,1.15.68,2.1,1.61,2.84,2.78.74,1.17,1.11,2.6,1.11,4.28,0,1.46-.26,2.77-.79,3.91s-1.27,2.12-2.23,2.94c-.9.78-1.93,1.44-3.09,1.98-1.16.54-2.42.95-3.76,1.25v.26c1.19.14,2.52.44,4,.89,1.47.46,2.79,1.1,3.94,1.92ZM22.48,38.25c.72-.84,1.22-1.76,1.51-2.76.28-1,.42-2.18.42-3.55,0-2.29-.62-4.08-1.87-5.39-1.25-1.3-3.21-1.95-5.9-1.95-.62,0-1.41.01-2.35.04-.95.03-1.74.05-2.38.07v16h3.71c1.6,0,2.97-.21,4.11-.62,1.14-.41,2.06-1.03,2.76-1.85ZM26.54,51.53c0-2.46-.83-4.48-2.48-6.06-1.65-1.58-4.01-2.37-7.08-2.37-1.25,0-2.3.01-3.16.04-.86.03-1.5.05-1.93.07v14.65c0,1.23.5,2.16,1.49,2.78,1,.63,2.38.94,4.16.94,2.91,0,5.14-.85,6.68-2.55,1.54-1.7,2.31-4.2,2.31-7.5Z"/>
    <path class="cls-1" d="M66.74,49.15c0,2.03-.32,4.03-.97,5.99-.65,1.96-1.56,3.63-2.76,5-1.35,1.56-2.91,2.72-4.69,3.49-1.78.76-3.77,1.14-5.98,1.14-1.84,0-3.59-.35-5.25-1.04s-3.14-1.7-4.43-3.03c-1.27-1.31-2.28-2.9-3.04-4.79-.75-1.88-1.13-4-1.13-6.34,0-4.51,1.31-8.2,3.94-11.07,2.63-2.87,6.08-4.31,10.34-4.31s7.39,1.36,10.02,4.09c2.63,2.72,3.94,6.35,3.94,10.88ZM60.67,49.21c0-1.46-.15-3.01-.44-4.64-.29-1.63-.73-3.01-1.32-4.15-.63-1.21-1.45-2.18-2.47-2.92-1.02-.73-2.26-1.1-3.73-1.1s-2.79.37-3.86,1.11c-1.07.74-1.93,1.76-2.6,3.05-.63,1.19-1.07,2.55-1.32,4.07s-.38,3-.38,4.42c0,1.87.15,3.61.46,5.2.3,1.59.79,3.01,1.45,4.26.67,1.25,1.5,2.23,2.51,2.94,1.01.71,2.25,1.07,3.74,1.07,2.45,0,4.38-1.18,5.81-3.54,1.43-2.36,2.14-5.62,2.14-9.79Z"/>
    <path class="cls-2" d="M99.08,49.15c0,2.03-.32,4.03-.97,5.99-.65,1.96-1.56,3.63-2.76,5-1.35,1.56-2.91,2.72-4.69,3.49-1.78.76-3.77,1.14-5.98,1.14-1.84,0-3.59-.35-5.25-1.04s-3.14-1.7-4.43-3.03c-1.27-1.31-2.28-2.9-3.04-4.79-.75-1.88-1.13-4-1.13-6.34,0-4.51,1.31-8.2,3.94-11.07,2.63-2.87,6.08-4.31,10.34-4.31s7.39,1.36,10.02,4.09c2.63,2.72,3.94,6.35,3.94,10.88ZM93.02,49.21c0-1.46-.15-3.01-.44-4.64-.29-1.63-.73-3.01-1.32-4.15-.63-1.21-1.45-2.18-2.47-2.92-1.02-.73-2.26-1.1-3.73-1.1s-2.79.37-3.86,1.11c-1.07.74-1.93,1.76-2.6,3.05-.63,1.19-1.07,2.55-1.32,4.07s-.38,3-.38,4.42c0,1.87.15,3.61.46,5.2.3,1.59.79,3.01,1.45,4.26.67,1.25,1.5,2.23,2.51,2.94,1.01.71,2.25,1.07,3.74,1.07,2.45,0,4.38-1.18,5.81-3.54,1.43-2.36,2.14-5.62,2.14-9.79Z"/>
    <path class="cls-1" d="M133.86,63.89h-8.72c-1.53-2.2-3.16-4.57-4.9-7.08-1.74-2.52-3.55-4.97-5.43-7.35l-2.4,2.24v6.86c0,.7.13,1.28.38,1.74.25.46.66.8,1.23,1.01.47.2.92.34,1.35.44.43.1.93.17,1.49.21v1.93h-14.15v-1.93c.45-.04.91-.08,1.4-.13.48-.05.89-.12,1.22-.22.54-.18.95-.48,1.22-.92.27-.44.41-1.01.41-1.72V25.37c0-.72-.15-1.4-.45-2.04-.3-.64-.7-1.12-1.19-1.45-.41-.31-1.05-.52-1.92-.62-.87-.1-1.57-.17-2.09-.21v-1.88l10.69-.64.41.44v30.56c1.52-1.52,3.17-3.16,4.94-4.9,1.77-1.75,3.26-3.3,4.47-4.67.16-.18.33-.41.51-.69.19-.28.28-.51.28-.69,0-.53-.42-.92-1.27-1.18-.85-.25-1.67-.43-2.45-.53v-1.88h12.71v1.82c-1.64.49-3.09,1.1-4.35,1.83s-2.22,1.39-2.89,1.98c-.47.39-1.13,1.02-1.99,1.9-.86.88-2.06,2.03-3.61,3.45,1.6,1.97,3.4,4.34,5.41,7.09,2,2.76,3.46,4.75,4.38,5.98.86,1.15,1.63,1.91,2.32,2.26.68.35,1.68.57,2.99.64v1.93Z"/>
    <path class="cls-1" d="M171.33,27.82c0,1.66-.25,3.2-.74,4.64s-1.2,2.74-2.14,3.9c-.93,1.17-2.08,2.2-3.45,3.1-1.37.9-2.92,1.63-4.68,2.19,1.28.42,2.31,1.37,3.08,2.85.77,1.48,1.37,3.41,1.79,5.8l1.82,10.44c.07.42.13.82.19,1.19.06.37.09.71.09,1.02,0,.19-.05.35-.14.49-.09.14-.23.26-.42.35-.19.09-.44.16-.77.21-.33.05-.71.07-1.16.07-.4,0-.72-.02-.96-.05s-.44-.11-.58-.21-.24-.25-.3-.42c-.06-.18-.11-.4-.16-.68l-1.82-11c-.19-1.26-.46-2.43-.82-3.52-.36-1.09-.88-2.03-1.54-2.84s-1.53-1.44-2.59-1.91c-1.06-.47-2.38-.7-3.94-.7h-4.69l-4.1,20.42c-.02.14-.08.27-.18.39-.09.12-.23.21-.42.28-.19.07-.42.13-.7.18-.28.05-.62.07-1.02.07-.37,0-.7-.02-.96-.05-.27-.04-.48-.09-.63-.16-.15-.07-.26-.16-.33-.28-.07-.12-.08-.26-.04-.42l8.51-42.41c.16-.84.51-1.42,1.03-1.73s1.07-.47,1.63-.47h8.58c2.17,0,4.04.22,5.62.65,1.58.43,2.88,1.05,3.9,1.86,1.03.81,1.79,1.78,2.28,2.92.49,1.14.74,2.43.74,3.85ZM166.64,28.34c0-.86-.15-1.66-.46-2.4-.3-.74-.78-1.37-1.44-1.91-.65-.54-1.51-.95-2.57-1.24-1.06-.29-2.34-.44-3.83-.44h-6.83l-3.36,16.63h5.85c2.24,0,4.16-.3,5.76-.91,1.6-.61,2.91-1.41,3.92-2.4,1.02-.99,1.76-2.12,2.24-3.4.48-1.27.72-2.59.72-3.94Z"/>
    <path class="cls-1" d="M195.25,42.01c0,1.31-.31,2.49-.92,3.53-.62,1.04-1.59,1.94-2.92,2.68-1.33.74-3.03,1.31-5.1,1.71-2.07.4-4.56.6-7.47.6h-3.37c-.14.74-.23,1.46-.29,2.17s-.09,1.36-.09,1.96c0,2.15.52,3.81,1.57,4.98,1.04,1.17,2.75,1.76,5.11,1.76,1.23,0,2.33-.09,3.31-.28.98-.19,1.82-.39,2.53-.6.71-.21,1.29-.41,1.73-.6.44-.19.74-.28.89-.28s.27.06.34.19c.07.13.1.29.1.48,0,.12-.01.27-.04.45-.03.19-.07.38-.13.59s-.14.41-.23.62c-.1.21-.22.38-.35.51-.23.23-.64.46-1.22.69-.58.22-1.26.42-2.04.6-.78.18-1.63.32-2.55.44-.92.12-1.83.18-2.72.18-1.68,0-3.15-.2-4.39-.6-1.25-.4-2.29-1-3.12-1.8-.83-.8-1.45-1.8-1.86-3s-.62-2.6-.62-4.2c0-1.25.12-2.59.37-4.03.24-1.44.62-2.86,1.14-4.28.52-1.42,1.19-2.77,2.01-4.07.82-1.3,1.8-2.44,2.93-3.43,1.13-.99,2.44-1.78,3.93-2.37,1.48-.6,3.15-.89,5.01-.89,1.54,0,2.85.2,3.93.6,1.07.4,1.95.91,2.62,1.52s1.16,1.29,1.46,2.04c.3.74.45,1.46.45,2.14ZM191.56,42.39c0-1.11-.44-2.01-1.32-2.68s-2.12-1.01-3.72-1.01c-1.41,0-2.66.24-3.76.73-1.1.49-2.08,1.14-2.92,1.96-.84.82-1.56,1.77-2.15,2.86-.6,1.08-1.08,2.22-1.45,3.41h3.25c2.34,0,4.29-.14,5.83-.42,1.54-.28,2.78-.67,3.71-1.16.93-.49,1.58-1.05,1.96-1.68.38-.63.57-1.3.57-2.01Z"/>
    <path class="cls-1" d="M221.45,42.01c0,1.31-.31,2.49-.92,3.53-.62,1.04-1.59,1.94-2.92,2.68-1.33.74-3.03,1.31-5.1,1.71-2.07.4-4.56.6-7.47.6h-3.37c-.14.74-.23,1.46-.29,2.17s-.09,1.36-.09,1.96c0,2.15.52,3.81,1.57,4.98s2.75,1.76,5.11,1.76c1.23,0,2.33-.09,3.31-.28.98-.19,1.82-.39,2.53-.6.71-.21,1.29-.41,1.73-.6.44-.19.74-.28.89-.28s.27.06.34.19c.07.13.1.29.1.48,0,.12-.01.27-.04.45-.03.19-.07.38-.13.59s-.14.41-.23.62-.21.38-.35.51c-.23.23-.64.46-1.22.69-.58.22-1.25.42-2.04.6s-1.63.32-2.55.44-1.83.18-2.72.18c-1.68,0-3.14-.2-4.39-.6s-2.29-1-3.12-1.8c-.83-.8-1.45-1.8-1.86-3s-.62-2.6-.62-4.2c0-1.25.12-2.59.37-4.03s.62-2.86,1.14-4.28c.52-1.42,1.19-2.77,2.01-4.07.82-1.3,1.8-2.44,2.93-3.43,1.13-.99,2.44-1.78,3.93-2.37,1.48-.6,3.15-.89,5.01-.89,1.54,0,2.85.2,3.93.6,1.07.4,1.95.91,2.62,1.52s1.16,1.29,1.46,2.04c.3.74.45,1.46.45,2.14ZM217.76,42.39c0-1.11-.44-2.01-1.32-2.68s-2.12-1.01-3.72-1.01c-1.41,0-2.66.24-3.76.73-1.1.49-2.08,1.14-2.92,1.96s-1.56,1.77-2.15,2.86-1.08,2.22-1.45,3.41h3.25c2.34,0,4.29-.14,5.83-.42,1.54-.28,2.78-.67,3.71-1.16.93-.49,1.58-1.05,1.96-1.68.38-.63.57-1.3.57-2.01Z"/>
    <path class="cls-1" d="M244.16,63.3c-.04.27-.19.47-.44.59s-.68.18-1.29.18c-.29,0-.53-.01-.72-.04s-.34-.07-.45-.13-.2-.14-.23-.23c-.04-.1-.04-.21,0-.35l1.03-5.33c-.25.64-.71,1.34-1.38,2.09-.66.75-1.46,1.45-2.39,2.09s-1.96,1.18-3.09,1.6-2.29.63-3.46.63-2.21-.16-3.06-.48-1.56-.74-2.14-1.26c-.58-.52-1.04-1.11-1.38-1.79s-.61-1.36-.79-2.07-.31-1.39-.37-2.07-.09-1.27-.09-1.8c0-1.07.1-2.29.31-3.66.21-1.37.54-2.76,1-4.17.46-1.42,1.04-2.81,1.76-4.17.71-1.37,1.58-2.58,2.61-3.65,1.03-1.06,2.21-1.92,3.56-2.58,1.35-.65,2.87-.98,4.57-.98.9,0,1.73.1,2.49.29.76.2,1.46.46,2.08.81.62.34,1.2.75,1.73,1.22s1.02.97,1.46,1.49l3.11-15.56c.02-.12.06-.22.13-.32.07-.1.17-.18.31-.23s.32-.11.54-.15c.22-.04.51-.06.86-.06.33,0,.61.02.83.06.22.04.4.09.53.15s.21.14.23.23c.03.1.03.21.01.32l-7.88,39.35ZM244.72,43.29c-1.05-1.5-2.17-2.65-3.35-3.43-1.18-.78-2.5-1.17-3.97-1.17-1.15,0-2.19.27-3.11.81-.92.54-1.74,1.25-2.48,2.12s-1.36,1.89-1.89,3.02c-.53,1.13-.96,2.3-1.3,3.5s-.6,2.38-.76,3.53c-.17,1.15-.25,2.2-.25,3.13,0,2.11.37,3.74,1.1,4.88s1.92,1.71,3.56,1.71c1.17,0,2.35-.31,3.54-.94,1.19-.62,2.3-1.5,3.33-2.62,1.03-1.12,1.93-2.47,2.72-4.03.79-1.56,1.38-3.29,1.77-5.19l1.08-5.33Z"/>
    <path class="cls-1" d="M276.07,42.01c0,1.31-.31,2.49-.92,3.53-.62,1.04-1.59,1.94-2.92,2.68-1.33.74-3.03,1.31-5.1,1.71-2.07.4-4.56.6-7.47.6h-3.37c-.14.74-.23,1.46-.29,2.17s-.09,1.36-.09,1.96c0,2.15.52,3.81,1.57,4.98s2.75,1.76,5.11,1.76c1.23,0,2.33-.09,3.31-.28.98-.19,1.82-.39,2.53-.6.71-.21,1.29-.41,1.73-.6.44-.19.74-.28.89-.28s.27.06.34.19c.07.13.1.29.1.48,0,.12-.01.27-.04.45-.03.19-.07.38-.13.59s-.14.41-.23.62-.21.38-.35.51c-.23.23-.64.46-1.22.69-.58.22-1.25.42-2.04.6s-1.63.32-2.55.44-1.83.18-2.72.18c-1.68,0-3.14-.2-4.39-.6s-2.29-1-3.12-1.8c-.83-.8-1.45-1.8-1.86-3s-.62-2.6-.62-4.2c0-1.25.12-2.59.37-4.03s.62-2.86,1.14-4.28c.52-1.42,1.19-2.77,2.01-4.07.82-1.3,1.8-2.44,2.93-3.43,1.13-.99,2.44-1.78,3.93-2.37,1.48-.6,3.15-.89,5.01-.89,1.54,0,2.85.2,3.93.6,1.07.4,1.95.91,2.62,1.52s1.16,1.29,1.46,2.04c.3.74.45,1.46.45,2.14ZM272.38,42.39c0-1.11-.44-2.01-1.32-2.68s-2.12-1.01-3.72-1.01c-1.41,0-2.66.24-3.76.73-1.1.49-2.08,1.14-2.92,1.96s-1.56,1.77-2.15,2.86-1.08,2.22-1.45,3.41h3.25c2.34,0,4.29-.14,5.83-.42,1.54-.28,2.78-.67,3.71-1.16.93-.49,1.58-1.05,1.96-1.68.38-.63.57-1.3.57-2.01Z"/>
    <path class="cls-1" d="M298.12,37.05c0,.06,0,.17-.03.32-.02.16-.04.33-.07.53-.03.2-.07.4-.13.62-.06.22-.13.41-.22.59s-.18.32-.28.44-.21.18-.35.18-.3-.04-.48-.12c-.19-.08-.4-.17-.64-.26-.24-.1-.52-.19-.83-.26-.31-.08-.67-.12-1.08-.12-.68,0-1.49.31-2.42.94-.93.63-1.86,1.49-2.78,2.61s-1.78,2.44-2.55,3.98c-.77,1.54-1.34,3.23-1.71,5.07l-2.31,11.75c-.04.12-.09.22-.16.32-.07.1-.18.18-.32.23s-.34.11-.57.15c-.23.04-.52.06-.85.06-.35,0-.63-.02-.85-.06-.21-.04-.38-.09-.5-.15s-.2-.14-.23-.23c-.04-.1-.04-.21,0-.32l5.27-26.51c.02-.12.07-.22.15-.32.08-.1.19-.18.34-.25.15-.07.33-.12.54-.15s.47-.04.76-.04.54.01.73.04.35.08.45.15c.11.07.18.15.21.25.03.1.03.21.01.32l-1.03,5.16c.43-.8.96-1.58,1.58-2.33.62-.75,1.3-1.42,2.04-1.99.73-.58,1.5-1.04,2.31-1.39s1.62-.53,2.42-.53c.35,0,.71.02,1.07.07.36.05.7.11,1.01.18.31.07.59.15.82.25.23.1.41.21.53.32.12.1.18.27.18.53Z"/>
  </g>
  <path class="cls-1" d="M83.59,0h3.92v17.31c0,.26-.21.47-.47.47h-2.97c-.26,0-.47-.21-.47-.47V0h0Z"/>
  <path class="cls-1" d="M84.11,80.5h2.87c.29,0,.52.23.52.52v17.26h-3.92v-17.26c0-.29.23-.52.52-.52Z"/>
</svg>