<?xml version="1.0" encoding="UTF-8"?>
<svg xmlns="http://www.w3.org/2000/svg" viewBox="0 0 512 512">
  <defs>
    <style>
      .st0 { fill: #eb5c55; }
      .st1 { fill: #fff; }
    </style>
  </defs>
  <rect width="512" height="512" fill="#1e1e2e"/>
  <g transform="translate(256 256) scale(2.85) translate(-626 -309.4)">
    <path class="st1" d="M623.2,219.6h7.2v32c0,.5-.4.9-.9.9h-5.5c-.5,0-.9-.4-.9-.9v-32h0Z"/>
    <path class="st1" d="M624.1,366.3h5.3c.5,0,1,.4,1,1v31.9h-7.2v-31.9c0-.5.4-1,1-1h0Z"/>
    <path class="st0" d="M648.4,288.4c2.7,2.5,4.7,5.5,6.1,8.9s2.1,7.2,2.1,11.3-.7,7.8-2.1,11.3c-1.4,3.5-3.4,6.6-6.1,9.1-2.8,2.7-6.2,4.8-10.2,6.2s-8.5,2.2-13.6,2.2-8.5-.6-12.2-1.9c-3.7-1.3-7-3.2-9.8-5.7-2.7-2.4-4.9-5.4-6.5-9-1.6-3.5-2.4-7.5-2.4-11.9s.7-8.2,2.1-11.5c1.4-3.4,3.5-6.4,6.2-9,2.7-2.5,6-4.5,9.9-5.9,3.9-1.4,8.3-2.1,13.1-2.1s9.5.7,13.3,2.1,7.1,3.3,9.9,5.9h0ZM634.6,325.9c.8-2,1.4-4.5,1.8-7.4.4-2.9.6-6.2.6-10.1s-.2-5.4-.5-8.7c-.4-3.3-.9-5.8-1.6-7.7-.9-2.3-2.1-4.1-3.6-5.4-1.5-1.3-3.5-1.9-5.8-1.9s-4.6.7-6.2,2.1-2.7,3.2-3.5,5.5c-.8,2.1-1.3,4.5-1.6,7.2-.3,2.8-.4,5.6-.4,8.6s.1,7.2.4,9.8.9,5.2,1.8,7.8c.8,2.2,2,4,3.6,5.3,1.6,1.3,3.5,1.9,5.9,1.9s4-.6,5.6-1.8c1.6-1.2,2.8-3,3.7-5.3h0Z"/>
  </g>
</svg>
